<svg width="169" height="37" viewBox="0 0 169 37" fill="none" xmlns="http://www.w3.org/2000/svg">
<path d="M20.836 23.9112H13.5287L10.0921 18.1956L13.4925 11.865L20.5104 11.6118L24.1641 17.7254L20.836 23.9112ZM13.6372 23.6942H20.6913L23.9471 17.6892L20.4019 11.7927L13.6372 12.0459L10.3453 18.1595L13.6372 23.6942Z" fill="#EF4129"/>
<path d="M13.6829 11.8775L13.4979 11.991L17.073 17.8189L17.258 17.7054L13.6829 11.8775Z" fill="#EF4129"/>
<path d="M20.3759 11.6656L17.0476 17.7209L17.2378 17.8255L20.5661 11.7701L20.3759 11.6656Z" fill="#EF4129"/>
<path d="M17.2422 17.7127L17.056 17.8242L20.6811 23.8759L20.8673 23.7644L17.2422 17.7127Z" fill="#EF4129"/>
<path d="M24.0561 17.595L17.1467 17.6558L17.1486 17.8728L24.058 17.8121L24.0561 17.595Z" fill="#EF4129"/>
<path d="M17.0671 17.7094L13.5027 23.7546L13.6897 23.8649L17.2541 17.8197L17.0671 17.7094Z" fill="#EF4129"/>
<path d="M17.1355 17.6654L10.2024 18.0859L10.2155 18.3026L17.1486 17.882L17.1355 17.6654Z" fill="#EF4129"/>
<path d="M17.0533 6.32151L13.4785 11.8936L13.6612 12.0108L17.236 6.43872L17.0533 6.32151Z" fill="#EF4129"/>
<path d="M17.1593 6.25961L17.1313 6.47485L24.0551 7.3741L24.0831 7.15885L17.1593 6.25961Z" fill="#EF4129"/>
<path d="M23.9919 7.18749L20.3848 11.6211L20.5531 11.7581L24.1603 7.32447L23.9919 7.18749Z" fill="#EF4129"/>
<path d="M17.2368 6.32608L17.0528 6.44116L20.3901 11.7782L20.5741 11.6631L17.2368 6.32608Z" fill="#EF4129"/>
<path d="M26.8451 4.84412L26.6561 4.95093L29.7358 10.3987L29.9248 10.2919L26.8451 4.84412Z" fill="#EF4129"/>
<path d="M20.4813 11.6119L20.4519 11.8269L26.2583 12.6204L26.2877 12.4053L20.4813 11.6119Z" fill="#EF4129"/>
<path d="M20.7485 2.6964L17.0864 6.29834L17.2386 6.45308L20.9007 2.85114L20.7485 2.6964Z" fill="#EF4129"/>
<path d="M20.8558 2.67239L20.7833 2.87695L26.7499 4.992L26.8224 4.78744L20.8558 2.67239Z" fill="#EF4129"/>
<path d="M26.6768 4.81316L23.9937 7.18506L24.1374 7.34767L26.8205 4.97577L26.6768 4.81316Z" fill="#EF4129"/>
<path d="M24.1117 7.18688L24.0101 7.37866L29.7956 10.4443L29.8972 10.2525L24.1117 7.18688Z" fill="#EF4129"/>
<path d="M29.7859 10.2697L26.2311 12.4309L26.3438 12.6164L29.8986 10.4552L29.7859 10.2697Z" fill="#EF4129"/>
<path d="M20.8762 2.72862L20.7006 2.8562L23.9752 7.36307L24.1508 7.23549L20.8762 2.72862Z" fill="#EF4129"/>
<path d="M26.7635 4.7877L26.7445 5.00391L29.3389 5.23239L29.358 5.01619L26.7635 4.7877Z" fill="#EF4129"/>
<path d="M23.319 1.5662L23.1714 1.72534L26.699 4.997L26.8466 4.83785L23.319 1.5662Z" fill="#EF4129"/>
<path d="M26.8169 4.81403L26.6888 4.98926L32.7925 9.45148L32.9206 9.27626L26.8169 4.81403Z" fill="#EF4129"/>
<path d="M24.1732 7.23707L23.9735 7.32202L26.1964 12.5482L26.3962 12.4633L24.1732 7.23707Z" fill="#EF4129"/>
<path d="M26.3666 12.4167L26.2003 12.5562L29.8261 16.88L29.9924 16.7406L26.3666 12.4167Z" fill="#EF4129"/>
<path d="M32.9182 15.205L29.8734 16.7192L29.9701 16.9136L33.0148 15.3994L32.9182 15.205Z" fill="#EF4129"/>
<path d="M29.9543 10.3393L29.7372 10.3416L29.8047 16.8162L30.0217 16.8139L29.9543 10.3393Z" fill="#EF4129"/>
<path d="M29.9328 10.2789L29.7489 10.3943L32.8637 15.3586L33.0475 15.2432L29.9328 10.2789Z" fill="#EF4129"/>
<path d="M32.8426 9.24466L29.8146 10.2271L29.8816 10.4335L32.9096 9.45112L32.8426 9.24466Z" fill="#EF4129"/>
<path d="M32.9842 9.37296L32.7672 9.37622L32.8562 15.3083L33.0732 15.305L32.9842 9.37296Z" fill="#EF4129"/>
<path d="M34.8031 14.5395L32.7581 15.2664L32.8307 15.4709L34.8758 14.744L34.8031 14.5395Z" fill="#EF4129"/>
<path d="M26.172 12.46L23.957 17.6501L24.1567 17.7353L26.3716 12.5452L26.172 12.46Z" fill="#EF4129"/>
<path d="M29.9066 16.7093L24.0762 17.5908L24.1086 17.8054L29.9391 16.9239L29.9066 16.7093Z" fill="#EF4129"/>
<path d="M24.1768 17.6626L23.9871 17.7681L27.2031 23.5546L27.3928 23.4492L24.1768 17.6626Z" fill="#EF4129"/>
<path d="M29.8267 16.7485L27.1959 23.4104L27.3978 23.4901L30.0286 16.8282L29.8267 16.7485Z" fill="#EF4129"/>
<path d="M27.2633 23.3408L20.761 23.6841L20.7724 23.9008L27.2748 23.5576L27.2633 23.3408Z" fill="#EF4129"/>
<path d="M30.0043 16.7713L29.8074 16.8625L32.3459 22.3443L32.5428 22.2531L30.0043 16.7713Z" fill="#EF4129"/>
<path d="M32.4465 22.2112L27.2596 23.3848L27.3075 23.5965L32.4944 22.4229L32.4465 22.2112Z" fill="#EF4129"/>
<path d="M32.8674 15.294L32.3601 22.2937L32.5766 22.3094L33.0839 15.3097L32.8674 15.294Z" fill="#EF4129"/>
<path d="M33.0675 15.4683L32.8632 15.5417L34.8702 21.1244L35.0745 21.051L33.0675 15.4683Z" fill="#EF4129"/>
<path d="M34.9141 21.013L32.4038 22.2205L32.4979 22.4161L35.0082 21.2086L34.9141 21.013Z" fill="#EF4129"/>
<path d="M32.5571 22.2987L32.3427 22.3325L33.0025 26.5133L33.2169 26.4795L32.5571 22.2987Z" fill="#EF4129"/>
<path d="M27.3946 23.444L27.1906 23.5178L28.9017 28.2459L29.1058 28.1721L27.3946 23.444Z" fill="#EF4129"/>
<path d="M32.3676 22.2337L28.9033 28.1279L29.0904 28.2379L32.5548 22.3437L32.3676 22.2337Z" fill="#EF4129"/>
<path d="M29.1172 28.1772L28.9028 28.2114L29.3589 31.0692L29.5733 31.035L29.1172 28.1772Z" fill="#EF4129"/>
<path d="M33.0712 26.3911L28.9643 28.1033L29.0478 28.3036L33.1547 26.5914L33.0712 26.3911Z" fill="#EF4129"/>
<path d="M28.9376 28.1051L23.7999 32.3936L23.939 32.5602L29.0767 28.2717L28.9376 28.1051Z" fill="#EF4129"/>
<path d="M28.9987 28.0755L23.1414 29.02L23.176 29.2343L29.0333 28.2898L28.9987 28.0755Z" fill="#EF4129"/>
<path d="M27.2015 23.3987L23.0623 29.0664L23.2376 29.1944L27.3768 23.5268L27.2015 23.3987Z" fill="#EF4129"/>
<path d="M20.8652 23.7643L20.6669 23.8525L23.035 29.1735L23.2333 29.0852L20.8652 23.7643Z" fill="#EF4129"/>
<path d="M20.6735 23.7449L17.2845 28.3923L17.4599 28.5202L20.8489 23.8728L20.6735 23.7449Z" fill="#EF4129"/>
<path d="M23.2643 29.0927L23.0519 29.1375L23.7602 32.5002L23.9726 32.4554L23.2643 29.0927Z" fill="#EF4129"/>
<path d="M29.426 30.9298L23.8192 32.3652L23.873 32.5755L29.4798 31.1401L29.426 30.9298Z" fill="#EF4129"/>
<path d="M23.9651 32.4739L23.749 32.4946L23.9287 34.3671L24.1447 34.3463L23.9651 32.4739Z" fill="#EF4129"/>
<path d="M23.7945 32.3982L17.9934 35.3557L18.092 35.5491L23.8931 32.5916L23.7945 32.3982Z" fill="#EF4129"/>
<path d="M23.8357 32.3581L17.7957 32.4761L17.8 32.6931L23.8399 32.5751L23.8357 32.3581Z" fill="#EF4129"/>
<path d="M13.6566 23.7318L13.4887 23.8694L17.2947 28.5143L17.4626 28.3767L13.6566 23.7318Z" fill="#EF4129"/>
<path d="M17.4022 28.3623L17.377 28.5779L23.1256 29.2516L23.1508 29.036L17.4022 28.3623Z" fill="#EF4129"/>
<path d="M17.4819 28.4256L17.2659 28.4468L17.6709 32.5869L17.887 32.5658L17.4819 28.4256Z" fill="#EF4129"/>
<path d="M17.3579 28.3324L11.7784 29.3916L11.8189 29.6048L17.3984 28.5456L17.3579 28.3324Z" fill="#EF4129"/>
<path d="M23.0808 29.0391L17.734 32.4956L17.8518 32.6779L23.1987 29.2214L23.0808 29.0391Z" fill="#EF4129"/>
<path d="M11.8714 29.4372L11.772 29.6301L17.7536 32.7111L17.853 32.5182L11.8714 29.4372Z" fill="#EF4129"/>
<path d="M17.7951 32.5015L11.6466 32.6096L11.6504 32.8266L17.7989 32.7185L17.7951 32.5015Z" fill="#EF4129"/>
<path d="M17.8867 32.5842L17.6705 32.6035L17.9247 35.4499L18.1409 35.4306L17.8867 32.5842Z" fill="#EF4129"/>
<path d="M11.7149 32.5986L11.6294 32.7981L18.0138 35.5333L18.0992 35.3337L11.7149 32.5986Z" fill="#EF4129"/>
<path d="M6.8353 31.3271L6.77954 31.5369L11.6389 32.8286L11.6946 32.6189L6.8353 31.3271Z" fill="#EF4129"/>
<path d="M11.7021 29.5301L11.5529 32.71L11.7697 32.7201L11.9189 29.5403L11.7021 29.5301Z" fill="#EF4129"/>
<path d="M7.43349 23.6821L7.43323 23.8992L13.5468 23.9066L13.547 23.6895L7.43349 23.6821Z" fill="#EF4129"/>
<path d="M10.1081 18.1486L7.34131 23.7622L7.536 23.8582L10.3028 18.2445L10.1081 18.1486Z" fill="#EF4129"/>
<path d="M7.53827 23.7562L7.36578 23.8879L11.7354 29.6088L11.9079 29.4771L7.53827 23.7562Z" fill="#EF4129"/>
<path d="M13.4641 23.7888L11.6979 29.4902L11.9052 29.5545L13.6714 23.853L13.4641 23.7888Z" fill="#EF4129"/>
<path d="M6.38307 28.6967L6.35461 28.9119L11.8059 29.6327L11.8344 29.4175L6.38307 28.6967Z" fill="#EF4129"/>
<path d="M7.33366 23.7966L6.25793 28.7825L6.4701 28.8282L7.54583 23.8424L7.33366 23.7966Z" fill="#EF4129"/>
<path d="M11.7487 32.6537L11.558 32.7573L12.6292 34.7279L12.8199 34.6242L11.7487 32.6537Z" fill="#EF4129"/>
<path d="M6.42837 28.7197L6.29944 28.8943L11.5961 32.8051L11.725 32.6305L6.42837 28.7197Z" fill="#EF4129"/>
<path d="M6.47426 28.8027L6.26031 28.8394L6.70581 31.4423L6.91975 31.4057L6.47426 28.8027Z" fill="#EF4129"/>
<path d="M3.02685 26.8154L2.92102 27.0049L6.30054 28.8922L6.40637 28.7027L3.02685 26.8154Z" fill="#EF4129"/>
<path d="M2.9705 22.8165L2.78381 22.9272L6.29052 28.8389L6.47721 28.7282L2.9705 22.8165Z" fill="#EF4129"/>
<path d="M2.89495 22.8031L2.85217 23.0159L7.42726 23.9356L7.47004 23.7229L2.89495 22.8031Z" fill="#EF4129"/>
<path d="M2.97573 22.9021L2.75879 22.9089L2.88507 26.9223L3.10201 26.9155L2.97573 22.9021Z" fill="#EF4129"/>
<path d="M4.72912 17.1997L2.77014 22.8379L2.97517 22.9091L4.93414 17.271L4.72912 17.1997Z" fill="#EF4129"/>
<path d="M4.93946 17.2179L4.73804 17.2988L7.36709 23.845L7.56852 23.7641L4.93946 17.2179Z" fill="#EF4129"/>
<path d="M1.11512 21.6105L0.995239 21.7915L2.80477 22.9903L2.92465 22.8093L1.11512 21.6105Z" fill="#EF4129"/>
<path d="M2.11058 16.1811L1.89526 16.2085L2.74373 22.8832L2.95904 22.8558L2.11058 16.1811Z" fill="#EF4129"/>
<path d="M1.90622 16.3555L0.953796 21.6609L1.16743 21.6992L2.11985 16.3938L1.90622 16.3555Z" fill="#EF4129"/>
<path d="M5.00041 11.0205L1.9071 16.3357L2.0947 16.4449L5.18801 11.1297L5.00041 11.0205Z" fill="#EF4129"/>
<path d="M2.59226 9.80973L1.88782 16.2102L2.10357 16.234L2.80801 9.83347L2.59226 9.80973Z" fill="#EF4129"/>
<path d="M5.14594 10.967L5.03345 11.1526L8.00337 12.9525L8.11587 12.7669L5.14594 10.967Z" fill="#EF4129"/>
<path d="M4.99084 11.047L4.69922 17.2622L4.91602 17.2724L5.20764 11.0572L4.99084 11.047Z" fill="#EF4129"/>
<path d="M2.05602 16.3001L1.97205 16.5002L4.90744 17.7319L4.99141 17.5318L2.05602 16.3001Z" fill="#EF4129"/>
<path d="M0.958417 14.8773L0.797302 15.0227L1.93661 16.2848L2.09773 16.1393L0.958417 14.8773Z" fill="#EF4129"/>
<path d="M7.83361 6.02088L7.71649 6.20361L9.93974 7.62856L10.0569 7.44583L7.83361 6.02088Z" fill="#EF4129"/>
<path d="M13.5496 11.8385L8.05444 12.7527L8.09006 12.9668L13.5852 12.0526L13.5496 11.8385Z" fill="#EF4129"/>
<path d="M8.1829 12.8364L7.98157 12.9175L10.1304 18.2528L10.3318 18.1718L8.1829 12.8364Z" fill="#EF4129"/>
<path d="M7.99162 12.7875L4.73877 17.176L4.91314 17.3053L8.16599 12.9168L7.99162 12.7875Z" fill="#EF4129"/>
<path d="M4.98469 17.5L4.96179 17.7158L10.2137 18.273L10.2366 18.0572L4.98469 17.5Z" fill="#EF4129"/>
<path d="M13.863 2.8665L9.94043 7.46143L10.1055 7.60236L14.0281 3.00743L13.863 2.8665Z" fill="#EF4129"/>
<path d="M10.0926 7.48132L9.92413 7.61816L13.4822 11.9985L13.6507 11.8616L10.0926 7.48132Z" fill="#EF4129"/>
<path d="M9.90845 7.52074L7.97394 12.822L8.17784 12.8964L10.1123 7.59514L9.90845 7.52074Z" fill="#EF4129"/>
<path d="M9.97006 7.44435L5.05676 10.9597L5.18306 11.1362L10.0964 7.62087L9.97006 7.44435Z" fill="#EF4129"/>
<path d="M13.9913 2.89259L13.8334 3.0415L17.0599 6.46274L17.2178 6.31382L13.9913 2.89259Z" fill="#EF4129"/>
<path d="M11.8664 1.85884L11.7744 2.05542L13.904 3.05216L13.996 2.85558L11.8664 1.85884Z" fill="#EF4129"/>
<path d="M13.8952 2.87412L7.75342 6.03931L7.85284 6.23223L13.9946 3.06704L13.8952 2.87412Z" fill="#EF4129"/>
<path d="M23.233 1.52442L20.7793 2.68237L20.8719 2.87866L23.3257 1.72071L23.233 1.52442Z" fill="#EF4129"/>
<path d="M17.1867 0.716395L17.0833 0.907227L20.7409 2.8891L20.8443 2.69827L17.1867 0.716395Z" fill="#EF4129"/>
<path d="M20.798 2.66967L13.9269 2.85083L13.9326 3.06782L20.8037 2.88665L20.798 2.66967Z" fill="#EF4129"/>
<path d="M17.08 0.705577L13.8716 2.87085L13.993 3.05076L17.2014 0.885491L17.08 0.705577Z" fill="#EF4129"/>
<path d="M11.7367 1.89365L7.71234 6.05347L7.86834 6.20438L11.8927 2.04457L11.7367 1.89365Z" fill="#EF4129"/>
<path d="M7.68488 6.05693L5.00806 10.9839L5.19878 11.0875L7.87561 6.16055L7.68488 6.05693Z" fill="#EF4129"/>
<path d="M7.73696 6.02368L2.67029 9.69727L2.7977 9.87299L7.86437 6.1994L7.73696 6.02368Z" fill="#EF4129"/>
<path d="M2.7663 9.70247L2.66522 9.89453L5.06605 11.158L5.16713 10.966L2.7663 9.70247Z" fill="#EF4129"/>
<path d="M6.42994 5.10458L6.31287 5.28735L7.74461 6.20445L7.86169 6.02167L6.42994 5.10458Z" fill="#EF4129"/>
<path d="M17.1111 6.25884L9.97168 7.43091L10.0068 7.64509L17.1463 6.47303L17.1111 6.25884Z" fill="#EF4129"/>
<path d="M17.9056 35.5231C8.31931 35.5231 0.505554 27.7093 0.505554 18.123C0.505554 8.53666 8.31931 0.7229 17.9056 0.7229C27.4919 0.7229 35.3057 8.53666 35.3057 18.123C35.3419 27.7093 27.5281 35.5231 17.9056 35.5231ZM17.9056 0.867597C8.42783 0.867597 0.686428 8.60901 0.686428 18.123C0.686428 27.6369 8.42783 35.3422 17.9056 35.3422C27.3834 35.3422 35.1248 27.6008 35.1248 18.123C35.161 8.60901 27.4196 0.867597 17.9056 0.867597Z" fill="#EF4129"/>
<path d="M11.7211 2.56679C12.1607 2.56679 12.517 2.21047 12.517 1.77094C12.517 1.3314 12.1607 0.975098 11.7211 0.975098C11.2816 0.975098 10.9253 1.3314 10.9253 1.77094C10.9253 2.21047 11.2816 2.56679 11.7211 2.56679Z" fill="#EF4129"/>
<path d="M13.928 3.7621C14.3676 3.7621 14.7239 3.40579 14.7239 2.96626C14.7239 2.52673 14.3676 2.17041 13.928 2.17041C13.4885 2.17041 13.1322 2.52673 13.1322 2.96626C13.1322 3.40579 13.4885 3.7621 13.928 3.7621Z" fill="#EF4129"/>
<path d="M17.1472 1.59169C17.5868 1.59169 17.9431 1.23538 17.9431 0.79585C17.9431 0.356316 17.5868 0 17.1472 0C16.7077 0 16.3514 0.356316 16.3514 0.79585C16.3514 1.23538 16.7077 1.59169 17.1472 1.59169Z" fill="#EF4129"/>
<path d="M9.98505 8.39345C10.4246 8.39345 10.7809 8.03713 10.7809 7.5976C10.7809 7.15806 10.4246 6.80176 9.98505 6.80176C9.54552 6.80176 9.18921 7.15806 9.18921 7.5976C9.18921 8.03713 9.54552 8.39345 9.98505 8.39345Z" fill="#EF4129"/>
<path d="M7.84931 6.87221C8.28885 6.87221 8.64516 6.5159 8.64516 6.07637C8.64516 5.63683 8.28885 5.28052 7.84931 5.28052C7.40978 5.28052 7.05347 5.63683 7.05347 6.07637C7.05347 6.5159 7.40978 6.87221 7.84931 6.87221Z" fill="#EF4129"/>
<path d="M6.43867 5.89688C6.8782 5.89688 7.23451 5.54056 7.23451 5.10103C7.23451 4.66149 6.8782 4.30518 6.43867 4.30518C5.99914 4.30518 5.64282 4.66149 5.64282 5.10103C5.64282 5.54056 5.99914 5.89688 6.43867 5.89688Z" fill="#EF4129"/>
<path d="M17.1472 7.16275C17.5868 7.16275 17.9431 6.80643 17.9431 6.3669C17.9431 5.92736 17.5868 5.57104 17.1472 5.57104C16.7077 5.57104 16.3514 5.92736 16.3514 6.3669C16.3514 6.80643 16.7077 7.16275 17.1472 7.16275Z" fill="#EF4129"/>
<path d="M20.8016 3.58192C21.2412 3.58192 21.5975 3.22562 21.5975 2.78608C21.5975 2.34655 21.2412 1.99023 20.8016 1.99023C20.3621 1.99023 20.0058 2.34655 20.0058 2.78608C20.0058 3.22562 20.3621 3.58192 20.8016 3.58192Z" fill="#EF4129"/>
<path d="M23.1888 2.38807C23.6284 2.38807 23.9847 2.03176 23.9847 1.59223C23.9847 1.15269 23.6284 0.796387 23.1888 0.796387C22.7493 0.796387 22.393 1.15269 22.393 1.59223C22.393 2.03176 22.7493 2.38807 23.1888 2.38807Z" fill="#EF4129"/>
<path d="M23.9852 8.17445C24.4247 8.17445 24.781 7.81814 24.781 7.3786C24.781 6.93907 24.4247 6.58276 23.9852 6.58276C23.5456 6.58276 23.1893 6.93907 23.1893 7.3786C23.1893 7.81814 23.5456 8.17445 23.9852 8.17445Z" fill="#EF4129"/>
<path d="M29.2295 5.89688C29.669 5.89688 30.0253 5.54056 30.0253 5.10103C30.0253 4.66149 29.669 4.30518 29.2295 4.30518C28.79 4.30518 28.4337 4.66149 28.4337 5.10103C28.4337 5.54056 28.79 5.89688 29.2295 5.89688Z" fill="#EF4129"/>
<path d="M32.8104 10.0927C33.2499 10.0927 33.6062 9.73636 33.6062 9.29683C33.6062 8.85729 33.2499 8.50098 32.8104 8.50098C32.3708 8.50098 32.0145 8.85729 32.0145 9.29683C32.0145 9.73636 32.3708 10.0927 32.8104 10.0927Z" fill="#EF4129"/>
<path d="M34.8377 15.4464C35.2772 15.4464 35.6335 15.0901 35.6335 14.6506C35.6335 14.211 35.2772 13.8547 34.8377 13.8547C34.3981 13.8547 34.0418 14.211 34.0418 14.6506C34.0418 15.0901 34.3981 15.4464 34.8377 15.4464Z" fill="#EF4129"/>
<path d="M32.8104 16.1698C33.2499 16.1698 33.6062 15.8135 33.6062 15.374C33.6062 14.9344 33.2499 14.5781 32.8104 14.5781C32.3708 14.5781 32.0145 14.9344 32.0145 15.374C32.0145 15.8135 32.3708 16.1698 32.8104 16.1698Z" fill="#EF4129"/>
<path d="M29.8819 17.7257C30.3214 17.7257 30.6777 17.3694 30.6777 16.9299C30.6777 16.4903 30.3214 16.134 29.8819 16.134C29.4424 16.134 29.0861 16.4903 29.0861 16.9299C29.0861 17.3694 29.4424 17.7257 29.8819 17.7257Z" fill="#EF4129"/>
<path d="M35.0173 21.8861C35.4568 21.8861 35.8131 21.5298 35.8131 21.0903C35.8131 20.6508 35.4568 20.2944 35.0173 20.2944C34.5777 20.2944 34.2214 20.6508 34.2214 21.0903C34.2214 21.5298 34.5777 21.8861 35.0173 21.8861Z" fill="#EF4129"/>
<path d="M32.4492 23.0797C32.8888 23.0797 33.2451 22.7234 33.2451 22.2839C33.2451 21.8444 32.8888 21.488 32.4492 21.488C32.0097 21.488 31.6534 21.8444 31.6534 22.2839C31.6534 22.7234 32.0097 23.0797 32.4492 23.0797Z" fill="#EF4129"/>
<path d="M27.2755 24.2733C27.7151 24.2733 28.0714 23.917 28.0714 23.4775C28.0714 23.0379 27.7151 22.6816 27.2755 22.6816C26.836 22.6816 26.4797 23.0379 26.4797 23.4775C26.4797 23.917 26.836 24.2733 27.2755 24.2733Z" fill="#EF4129"/>
<path d="M24.0211 18.4838C24.4607 18.4838 24.817 18.1275 24.817 17.6879C24.817 17.2484 24.4607 16.8921 24.0211 16.8921C23.5816 16.8921 23.2253 17.2484 23.2253 17.6879C23.2253 18.1275 23.5816 18.4838 24.0211 18.4838Z" fill="#EF4129"/>
<path d="M20.7645 24.599C21.204 24.599 21.5603 24.2427 21.5603 23.8032C21.5603 23.3636 21.204 23.0073 20.7645 23.0073C20.3249 23.0073 19.9686 23.3636 19.9686 23.8032C19.9686 24.2427 20.3249 24.599 20.7645 24.599Z" fill="#EF4129"/>
<path d="M17.1472 18.5204C17.5868 18.5204 17.9431 18.1641 17.9431 17.7245C17.9431 17.285 17.5868 16.9287 17.1472 16.9287C16.7077 16.9287 16.3514 17.285 16.3514 17.7245C16.3514 18.1641 16.7077 18.5204 17.1472 18.5204Z" fill="#EF4129"/>
<path d="M33.1356 27.275C33.5751 27.275 33.9314 26.9187 33.9314 26.4792C33.9314 26.0397 33.5751 25.6833 33.1356 25.6833C32.696 25.6833 32.3397 26.0397 32.3397 26.4792C32.3397 26.9187 32.696 27.275 33.1356 27.275Z" fill="#EF4129"/>
<path d="M28.9764 28.976C29.4159 28.976 29.7722 28.6196 29.7722 28.1801C29.7722 27.7406 29.4159 27.3843 28.9764 27.3843C28.5369 27.3843 28.1805 27.7406 28.1805 28.1801C28.1805 28.6196 28.5369 28.976 28.9764 28.976Z" fill="#EF4129"/>
<path d="M29.556 31.7987C29.9955 31.7987 30.3518 31.4424 30.3518 31.0029C30.3518 30.5633 29.9955 30.207 29.556 30.207C29.1164 30.207 28.7601 30.5633 28.7601 31.0029C28.7601 31.4424 29.1164 31.7987 29.556 31.7987Z" fill="#EF4129"/>
<path d="M24.0211 35.163C24.4607 35.163 24.817 34.8067 24.817 34.3671C24.817 33.9276 24.4607 33.5713 24.0211 33.5713C23.5816 33.5713 23.2253 33.9276 23.2253 34.3671C23.2253 34.8067 23.5816 35.163 24.0211 35.163Z" fill="#EF4129"/>
<path d="M18.0884 36.2484C18.528 36.2484 18.8843 35.8921 18.8843 35.4526C18.8843 35.013 18.528 34.6567 18.0884 34.6567C17.6489 34.6567 17.2926 35.013 17.2926 35.4526C17.2926 35.8921 17.6489 36.2484 18.0884 36.2484Z" fill="#EF4129"/>
<path d="M17.7999 33.3908C18.2394 33.3908 18.5957 33.0345 18.5957 32.5949C18.5957 32.1554 18.2394 31.7991 17.7999 31.7991C17.3603 31.7991 17.004 32.1554 17.004 32.5949C17.004 33.0345 17.3603 33.3908 17.7999 33.3908Z" fill="#EF4129"/>
<path d="M17.3987 29.2667C17.8382 29.2667 18.1945 28.9104 18.1945 28.4709C18.1945 28.0314 17.8382 27.675 17.3987 27.675C16.9592 27.675 16.6028 28.0314 16.6028 28.4709C16.6028 28.9104 16.9592 29.2667 17.3987 29.2667Z" fill="#EF4129"/>
<path d="M13.564 24.599C14.0035 24.599 14.3598 24.2427 14.3598 23.8032C14.3598 23.3636 14.0035 23.0073 13.564 23.0073C13.1244 23.0073 12.7681 23.3636 12.7681 23.8032C12.7681 24.2427 13.1244 24.599 13.564 24.599Z" fill="#EF4129"/>
<path d="M10.2368 18.9552C10.6763 18.9552 11.0326 18.5989 11.0326 18.1594C11.0326 17.7198 10.6763 17.3635 10.2368 17.3635C9.79723 17.3635 9.44092 17.7198 9.44092 18.1594C9.44092 18.5989 9.79723 18.9552 10.2368 18.9552Z" fill="#EF4129"/>
<path d="M7.45393 24.599C7.89346 24.599 8.24977 24.2427 8.24977 23.8032C8.24977 23.3636 7.89346 23.0073 7.45393 23.0073C7.01439 23.0073 6.65808 23.3636 6.65808 23.8032C6.65808 24.2427 7.01439 24.599 7.45393 24.599Z" fill="#EF4129"/>
<path d="M12.698 35.4157C13.1375 35.4157 13.4939 35.0594 13.4939 34.6198C13.4939 34.1803 13.1375 33.824 12.698 33.824C12.2585 33.824 11.9022 34.1803 11.9022 34.6198C11.9022 35.0594 12.2585 35.4157 12.698 35.4157Z" fill="#EF4129"/>
<path d="M11.5022 33.3908C11.9417 33.3908 12.2981 33.0345 12.2981 32.5949C12.2981 32.1554 11.9417 31.7991 11.5022 31.7991C11.0627 31.7991 10.7064 32.1554 10.7064 32.5949C10.7064 33.0345 11.0627 33.3908 11.5022 33.3908Z" fill="#EF4129"/>
<path d="M11.7918 30.3139C12.2313 30.3139 12.5876 29.9576 12.5876 29.518C12.5876 29.0785 12.2313 28.7222 11.7918 28.7222C11.3522 28.7222 10.9959 29.0785 10.9959 29.518C10.9959 29.9576 11.3522 30.3139 11.7918 30.3139Z" fill="#EF4129"/>
<path d="M6.80128 32.195C7.24081 32.195 7.59712 31.8387 7.59712 31.3991C7.59712 30.9596 7.24081 30.6033 6.80128 30.6033C6.36175 30.6033 6.00543 30.9596 6.00543 31.3991C6.00543 31.8387 6.36175 32.195 6.80128 32.195Z" fill="#EF4129"/>
<path d="M6.36683 29.5917C6.80636 29.5917 7.16268 29.2354 7.16268 28.7959C7.16268 28.3563 6.80636 28 6.36683 28C5.92729 28 5.57098 28.3563 5.57098 28.7959C5.57098 29.2354 5.92729 29.5917 6.36683 29.5917Z" fill="#EF4129"/>
<path d="M2.92945 27.6747C3.36898 27.6747 3.7253 27.3184 3.7253 26.8789C3.7253 26.4393 3.36898 26.083 2.92945 26.083C2.48992 26.083 2.13361 26.4393 2.13361 26.8789C2.13361 27.3184 2.48992 27.6747 2.92945 27.6747Z" fill="#EF4129"/>
<path d="M2.92945 23.7299C3.36898 23.7299 3.7253 23.3736 3.7253 22.934C3.7253 22.4945 3.36898 22.1382 2.92945 22.1382C2.48992 22.1382 2.13361 22.4945 2.13361 22.934C2.13361 23.3736 2.48992 23.7299 2.92945 23.7299Z" fill="#EF4129"/>
<path d="M0.976389 22.4298C1.41592 22.4298 1.77223 22.0735 1.77223 21.634C1.77223 21.1945 1.41592 20.8381 0.976389 20.8381C0.536856 20.8381 0.180542 21.1945 0.180542 21.634C0.180542 22.0735 0.536856 22.4298 0.976389 22.4298Z" fill="#EF4129"/>
<path d="M4.88465 18.1945C5.32418 18.1945 5.6805 17.8382 5.6805 17.3986C5.6805 16.9591 5.32418 16.6028 4.88465 16.6028C4.44512 16.6028 4.08881 16.9591 4.08881 17.3986C4.08881 17.8382 4.44512 18.1945 4.88465 18.1945Z" fill="#EF4129"/>
<path d="M2.02662 17.1837C2.46615 17.1837 2.82247 16.8274 2.82247 16.3879C2.82247 15.9484 2.46615 15.592 2.02662 15.592C1.58708 15.592 1.23077 15.9484 1.23077 16.3879C1.23077 16.8274 1.58708 17.1837 2.02662 17.1837Z" fill="#EF4129"/>
<path d="M5.24555 11.9376C5.68508 11.9376 6.0414 11.5813 6.0414 11.1418C6.0414 10.7023 5.68508 10.3459 5.24555 10.3459C4.80602 10.3459 4.44971 10.7023 4.44971 11.1418C4.44971 11.5813 4.80602 11.9376 5.24555 11.9376Z" fill="#EF4129"/>
<path d="M8.06843 13.5651C8.50796 13.5651 8.86427 13.2088 8.86427 12.7692C8.86427 12.3297 8.50796 11.9734 8.06843 11.9734C7.6289 11.9734 7.27258 12.3297 7.27258 12.7692C7.27258 13.2088 7.6289 13.5651 8.06843 13.5651Z" fill="#EF4129"/>
<path d="M13.6011 12.8058C14.0407 12.8058 14.397 12.4495 14.397 12.01C14.397 11.5704 14.0407 11.2141 13.6011 11.2141C13.1616 11.2141 12.8053 11.5704 12.8053 12.01C12.8053 12.4495 13.1616 12.8058 13.6011 12.8058Z" fill="#EF4129"/>
<path d="M2.60377 10.6718C3.0433 10.6718 3.39961 10.3155 3.39961 9.87593C3.39961 9.43639 3.0433 9.08008 2.60377 9.08008C2.16424 9.08008 1.80792 9.43639 1.80792 9.87593C1.80792 10.3155 2.16424 10.6718 2.60377 10.6718Z" fill="#EF4129"/>
<path d="M0.795847 15.6271C1.23538 15.6271 1.59169 15.2708 1.59169 14.8312C1.59169 14.3917 1.23538 14.0354 0.795847 14.0354C0.356314 14.0354 0 14.3917 0 14.8312C0 15.2708 0.356314 15.6271 0.795847 15.6271Z" fill="#EF4129"/>
<path d="M23.8032 33.0651C24.2427 33.0651 24.599 32.7088 24.599 32.2692C24.599 31.8297 24.2427 31.4734 23.8032 31.4734C23.3636 31.4734 23.0073 31.8297 23.0073 32.2692C23.0073 32.7088 23.3636 33.0651 23.8032 33.0651Z" fill="#EF4129"/>
<path d="M23.1151 29.9513C23.5546 29.9513 23.9109 29.595 23.9109 29.1555C23.9109 28.7159 23.5546 28.3596 23.1151 28.3596C22.6755 28.3596 22.3192 28.7159 22.3192 29.1555C22.3192 29.595 22.6755 29.9513 23.1151 29.9513Z" fill="#EF4129"/>
<path d="M29.7712 11.1776C30.2108 11.1776 30.5671 10.8213 30.5671 10.3818C30.5671 9.94225 30.2108 9.58594 29.7712 9.58594C29.3317 9.58594 28.9754 9.94225 28.9754 10.3818C28.9754 10.8213 29.3317 11.1776 29.7712 11.1776Z" fill="#EF4129"/>
<path d="M26.2987 13.2765C26.7382 13.2765 27.0945 12.9202 27.0945 12.4807C27.0945 12.0411 26.7382 11.6848 26.2987 11.6848C25.8591 11.6848 25.5028 12.0411 25.5028 12.4807C25.5028 12.9202 25.8591 13.2765 26.2987 13.2765Z" fill="#EF4129"/>
<path d="M20.439 12.517C20.8786 12.517 21.2349 12.1607 21.2349 11.7211C21.2349 11.2816 20.8786 10.9253 20.439 10.9253C19.9995 10.9253 19.6432 11.2816 19.6432 11.7211C19.6432 12.1607 19.9995 12.517 20.439 12.517Z" fill="#EF4129"/>
<path d="M41.9258 17.628C41.9258 12.3103 46.6285 11.2974 49.0884 11.2974C52.4888 11.2974 55.8531 13.1423 55.9616 17.3385C55.9616 18.2791 55.8893 18.8579 55.8893 18.8579H45.5071C45.7241 20.8475 48.4011 21.0646 49.0884 21.0646C51.078 21.0646 52.0547 20.2687 52.4888 19.6537L55.2381 21.1369C54.6955 22.0051 52.9229 23.9585 49.0884 23.9585C46.5562 23.9947 41.9258 22.9456 41.9258 17.628ZM45.6156 16.5427H52.1994C52.1994 15.4213 50.861 14.2275 49.0884 14.2275C47.0264 14.1913 45.7603 15.2766 45.6156 16.5427Z" fill="#374EA2"/>
<path d="M58.8568 6.95752H62.4381V19.4378C62.4381 20.089 62.2934 21.0657 63.9574 20.9572V23.815C63.7765 23.8511 63.4871 23.8511 63.0892 23.8511C60.557 23.8511 58.8929 23.3809 58.8929 20.8125V6.95752H58.8568Z" fill="#374EA2"/>
<path d="M76.4732 22.475C75.9306 23.1623 74.3389 23.9581 72.494 23.9581C68.551 23.9581 65.874 21.5344 65.874 17.5914C65.874 13.6483 68.551 11.2246 72.494 11.2246C74.4113 11.2246 75.8221 11.9481 76.4732 12.744L80.0184 11.4778V23.6687H76.6903L76.4732 22.475ZM72.9643 14.1548C70.9385 14.1548 69.3468 15.24 69.3468 17.5914C69.3468 19.9066 70.9747 21.028 72.9643 21.028C75.2071 21.028 76.5818 19.7257 76.5818 17.5914C76.5818 15.5656 75.2071 14.1548 72.9643 14.1548Z" fill="#374EA2"/>
<path d="M82.8048 22.0775L84.6497 19.7623C85.6988 20.4134 87.3267 21.0646 88.9183 21.0646C90.0036 21.0646 90.7994 20.8113 90.7994 19.9793C90.7994 18.9302 88.9545 19.0749 88.2672 18.9664C86.4585 18.677 83.058 18.4238 83.058 15.1319C83.058 11.3335 87.2181 11.2974 88.4843 11.2974C90.5824 11.2974 92.2464 11.84 93.9466 13.0337L92.1017 15.2766C91.125 14.734 89.8589 14.1552 88.3757 14.1552C87.6522 14.1552 86.6393 14.2275 86.6393 15.0595C86.6393 16.1086 88.4481 16.1086 89.7865 16.3257C91.3421 16.5789 94.3807 16.6512 94.3807 20.0155C94.3807 22.7648 92.4273 23.9947 88.9907 23.9947C86.1329 23.9585 84.2156 23.1265 82.8048 22.0775Z" fill="#374EA2"/>
<path d="M101.615 19.2198C101.615 19.8709 101.471 21.0285 103.243 21.0285H104.148V23.7778C103.713 23.814 103.026 23.8501 102.52 23.8501C99.7704 23.8501 98.034 23.1628 98.034 20.5944V14.1915H95.4656L96.4785 11.2975H98.0702L98.5043 8.04175H101.615V11.2975H104.654L103.641 14.1915H101.615V19.2198Z" fill="#374EA2"/>
<path d="M109.248 10.2119C107.946 10.2119 107.295 9.41604 107.295 8.43932C107.295 7.49878 107.946 6.66675 109.248 6.66675C110.587 6.66675 111.238 7.49878 111.238 8.43932C111.274 9.41604 110.587 10.2119 109.248 10.2119ZM107.512 11.5142H111.093V23.7051H107.512V11.5142Z" fill="#374EA2"/>
<path d="M113.988 17.628C113.988 13.8296 117.099 11.2974 121.15 11.2974C124.044 11.2974 126.54 12.5635 127.626 14.8425L124.406 16.0001C123.827 14.7701 122.597 14.1913 121.187 14.1913C118.98 14.1913 117.605 15.3489 117.605 17.628C117.605 19.9431 119.016 21.0646 121.223 21.0646C122.634 21.0646 123.936 20.5581 124.551 19.292L127.59 20.4134C126.577 22.8009 124.37 23.9947 121.223 23.9947C117.135 23.9947 113.988 21.4263 113.988 17.628Z" fill="#374EA2"/>
<path d="M133.812 18.3153V23.7053H130.23V11.5144H133.558L133.775 13.1423C135.114 11.5144 137.357 11.2974 138.261 11.2974V14.5169C137.465 14.4446 133.812 14.5893 133.812 18.3153Z" fill="#374EA2"/>
<path d="M140.466 18.7127V11.5139H144.048V18.2786C144.048 20.63 145.314 21.0641 146.761 21.0641C148.28 21.0641 149.691 20.3767 149.583 17.4828V11.5139H153.164V23.7048H149.8L149.583 22.6196C148.714 23.4516 147.267 23.9942 145.531 23.9942C141.841 23.958 140.466 22.077 140.466 18.7127Z" fill="#374EA2"/>
<path d="M168.9 16.4707V23.6695H165.319V16.9048C165.319 14.5535 164.017 14.1194 162.606 14.1194C161.086 14.1194 159.676 14.8067 159.784 17.7007V23.6695H156.203V11.4786L159.784 12.5639C160.652 11.7318 162.099 11.1892 163.836 11.1892C167.526 11.2254 168.9 13.1065 168.9 16.4707Z" fill="#374EA2"/>
</svg>
